<svg width="317" height="317" viewBox="0 0 317 317" fill="none" xmlns="http://www.w3.org/2000/svg">
<circle cx="158.5" cy="158.5" r="158.5" fill="black"/>
<path d="M275.222 222.71C266.73 224.869 261.477 222.804 256.764 215.728L223.246 169.355L218.402 162.935L179.26 215.881C174.787 222.25 170.096 225.022 161.75 222.768L211.872 155.486L165.208 94.711C173.233 93.1497 178.778 93.945 183.703 101.131L218.468 148.08L253.488 101.387C257.975 95.0175 262.797 92.5952 270.852 94.9445L252.758 118.933L228.244 150.853C225.326 154.501 225.727 156.996 228.412 160.52L275.222 222.71ZM41.8129 154.362L45.9132 134.196C57.0758 94.2879 102.821 77.7044 134.368 102.364C152.805 116.869 157.387 137.385 156.475 160.367H52.5524C50.9911 201.734 80.7655 226.701 118.726 213.962C132.041 209.49 139.884 199.064 143.809 186.019C145.801 179.482 149.099 178.46 155.242 180.328C152.104 196.642 145.027 210.27 130.071 218.799C107.724 231.567 75.8262 227.437 59.0457 209.694C49.0504 199.399 44.9209 186.354 43.0678 172.405C42.7759 170.099 42.1923 167.903 41.7545 165.692C41.7934 161.918 41.8129 158.144 41.8129 154.369V154.362ZM52.7421 151.59H146.654C146.042 121.677 127.415 100.431 101.96 100.249C74.0168 100.03 53.9532 120.772 52.7421 151.59V151.59Z" fill="white"/>
</svg>
